<?xml version="1.0" encoding="utf-8"?>
<!-- Generator: Adobe Illustrator 25.4.1, SVG Export Plug-In . SVG Version: 6.00 Build 0)  -->
<svg version="1.1" id="Layer_1" xmlns="http://www.w3.org/2000/svg" xmlns:xlink="http://www.w3.org/1999/xlink" x="0px" y="0px"
	 viewBox="0 0 339 491.8" style="enable-background:new 0 0 339 491.8;" xml:space="preserve">
<style type="text/css">
	.st0{opacity:0.5;enable-background:new    ;}
	.st1{font-family:'Roboto-Regular';}
	.st2{font-size:12px;}
	.st3{opacity:0.5;fill:none;stroke:#FF513F;stroke-width:1.5;stroke-miterlimit:10;enable-background:new    ;}
	.st4{fill:none;stroke:#C4C5C7;stroke-width:2;stroke-miterlimit:10;}
	.st5{font-family:'Roboto-Bold';}
	.st6{font-size:16px;}
	.st7{opacity:0.5;}
	.st8{font-size:10px;}
	.st9{fill:none;stroke:url(#SVGID_1_);stroke-width:4;stroke-miterlimit:10;}
	.st10{fill:url(#SVGID_00000039104554278394917150000006311460527703832249_);}
	.st11{fill:none;stroke:url(#SVGID_00000053537064646518479370000004297813947559334786_);stroke-width:4;stroke-miterlimit:10;}
	.st12{fill:url(#SVGID_00000012431054443837804750000017296057444283334793_);}
	.st13{fill:none;stroke:url(#SVGID_00000047774120808037160610000007086753315415850907_);stroke-width:4;stroke-miterlimit:10;}
	.st14{fill:url(#SVGID_00000181081931544013932060000004503854174045947059_);}
	.st15{fill:url(#SVGID_00000132082272731020754810000018112943337198575016_);}
	.st16{fill:url(#SVGID_00000127748484436259433690000012891252734282462365_);}
</style>
<text transform="matrix(1 0 0 1 141.8778 145.6816)" class="st0 st1 st2">SHENZHEN</text>
<path class="st3" d="M152.5,250.8l-45.3,16.8c-4.8,1.8-7.5,7-6.2,11.9l51.5,194.4"/>
<path class="st3" d="M152.5,250.8L108,268.4c-4.8,1.9-7.3,7.1-5.9,12l54.4,193.5"/>
<path class="st3" d="M152.5,251.9l-44.4,16.7c-4.8,1.8-7.4,6.9-6.2,11.8l9,35.9c1.4,5.7,7.4,8.9,12.9,7.1l24.1-8.1
	c2-0.7,3.7-2,5-3.7L339,53"/>
<path class="st3" d="M152.5,251.9l-45.1,15.7c-4.9,1.7-7.7,7-6.4,12l10.1,38.1c1.4,5.1,6.4,8.3,11.6,7.2l25.8-5.1
	c2.6-0.5,4.8-2,6.3-4.1L339,57"/>
<path class="st3" d="M152.5,250.8L108.7,268c-4.6,1.8-7.2,6.8-6.1,11.6l11.1,47.5c0.7,2.8,2.5,5.2,5.1,6.6L339,449.9"/>
<path class="st3" d="M152.5,250.8L108,268.4c-4.8,1.9-7.3,7.1-5.9,12l58.4,193.5"/>
<circle cx="152.3" cy="250.9" r="3"/>
<path class="st4" d="M190.4,183.6l5.1-2.1l1.8-2.1l2.6-4.1l2.1-3.2l2.6-0.5l2.9,0.2l4,2.4l5-2.6l6.9-2.6l2.1-4.1l3.7-1.5l4.7,1.5
	l4.5-0.3l4.5,0.9l7.2,1.9"/>
<g>
	<text transform="matrix(1 0 0 1 126.5872 240.5664)" class="st5 st6">Aeropuerto</text>
</g>
<g class="st7">
	<text transform="matrix(1 0 0 1 226.4213 441)" class="st1 st8">MAR DEL</text>
	<text transform="matrix(1 0 0 1 217.8213 453)" class="st1 st8">SUR DE CHINA</text>
</g>
<g class="st7">
	<g>
		
			<linearGradient id="SVGID_1_" gradientUnits="userSpaceOnUse" x1="116.5" y1="-8302.8213" x2="116.5" y2="-8257.8047" gradientTransform="matrix(1 0 0 -1 0 -7870)">
			<stop  offset="0" style="stop-color:#000000"/>
			<stop  offset="0.8777" style="stop-color:#000000;stop-opacity:0.1223"/>
			<stop  offset="1" style="stop-color:#000000;stop-opacity:0"/>
		</linearGradient>
		<line class="st9" x1="111.3" y1="388.4" x2="121.7" y2="424"/>
		<g>
			
				<linearGradient id="SVGID_00000047041711761009736440000008848086566155667353_" gradientUnits="userSpaceOnUse" x1="121.25" y1="-8302.8213" x2="121.25" y2="-8257.8047" gradientTransform="matrix(1 0 0 -1 0 -7870)">
				<stop  offset="0" style="stop-color:#000000"/>
				<stop  offset="0.8777" style="stop-color:#000000;stop-opacity:0.1223"/>
				<stop  offset="1" style="stop-color:#000000;stop-opacity:0"/>
			</linearGradient>
			<polygon style="fill:url(#SVGID_00000047041711761009736440000008848086566155667353_);" points="115.5,424 124.1,432.3 
				127,420.6 			"/>
		</g>
	</g>
</g>
<g class="st7">
	<g>
		
			<linearGradient id="SVGID_00000112601857467183211110000012329660167290738071_" gradientUnits="userSpaceOnUse" x1="277.1296" y1="-8281.0693" x2="244.8282" y2="-8249.7139" gradientTransform="matrix(1 0 0 -1 0 -7870)">
			<stop  offset="0" style="stop-color:#000000"/>
			<stop  offset="0.8777" style="stop-color:#000000;stop-opacity:0.1223"/>
			<stop  offset="1" style="stop-color:#000000;stop-opacity:0"/>
		</linearGradient>
		
			<line style="fill:none;stroke:url(#SVGID_00000112601857467183211110000012329660167290738071_);stroke-width:4;stroke-miterlimit:10;" x1="241.6" y1="383.8" x2="274.4" y2="401.2"/>
		<g>
			
				<linearGradient id="SVGID_00000073684572463746734650000012499769480711116213_" gradientUnits="userSpaceOnUse" x1="280.4357" y1="-8277.665" x2="248.1343" y2="-8246.3096" gradientTransform="matrix(1 0 0 -1 0 -7870)">
				<stop  offset="0" style="stop-color:#000000"/>
				<stop  offset="0.8777" style="stop-color:#000000;stop-opacity:0.1223"/>
				<stop  offset="1" style="stop-color:#000000;stop-opacity:0"/>
			</linearGradient>
			<polygon style="fill:url(#SVGID_00000073684572463746734650000012499769480711116213_);" points="270.1,405.6 282,405.2 
				275.7,395.1 			"/>
		</g>
	</g>
</g>
<g class="st7">
	<g>
		
			<linearGradient id="SVGID_00000071524156647266955030000000146056180477434794_" gradientUnits="userSpaceOnUse" x1="327.178" y1="-7974.2905" x2="292.9739" y2="-8003.5591" gradientTransform="matrix(1 0 0 -1 0 -7870)">
			<stop  offset="0" style="stop-color:#000000"/>
			<stop  offset="0.8777" style="stop-color:#000000;stop-opacity:0.1223"/>
			<stop  offset="1" style="stop-color:#000000;stop-opacity:0"/>
		</linearGradient>
		
			<line style="fill:none;stroke:url(#SVGID_00000071524156647266955030000000146056180477434794_);stroke-width:4;stroke-miterlimit:10;" x1="296.8" y1="137.1" x2="317.1" y2="106.1"/>
		<g>
			
				<linearGradient id="SVGID_00000011751700294863192260000001683196098695213985_" gradientUnits="userSpaceOnUse" x1="324.1053" y1="-7970.6997" x2="289.9013" y2="-7999.9673" gradientTransform="matrix(1 0 0 -1 0 -7870)">
				<stop  offset="0" style="stop-color:#000000"/>
				<stop  offset="0.8777" style="stop-color:#000000;stop-opacity:0.1223"/>
				<stop  offset="1" style="stop-color:#000000;stop-opacity:0"/>
			</linearGradient>
			<polygon style="fill:url(#SVGID_00000011751700294863192260000001683196098695213985_);" points="321.1,110.8 321.8,98.9 
				311.1,104.3 			"/>
		</g>
	</g>
</g>
<linearGradient id="SVGID_00000178902746544093630410000001955678932504588425_" gradientUnits="userSpaceOnUse" x1="-6269.0796" y1="-6065.9507" x2="-6269.0796" y2="-6032.1509" gradientTransform="matrix(6.123234e-17 -1 -1 -6.123234e-17 -5727.251 -5844.7295)">
	<stop  offset="0" style="stop-color:#FFFFFF"/>
	<stop  offset="1" style="stop-color:#FFFFFF;stop-opacity:0"/>
</linearGradient>
<polygon style="fill:url(#SVGID_00000178902746544093630410000001955678932504588425_);" points="304.9,362.4 304.9,486.3 
	338.7,486.3 338.7,362.4 "/>
<linearGradient id="SVGID_00000084492416461006840050000005904498666561339325_" gradientUnits="userSpaceOnUse" x1="-3269.5793" y1="-6227.9507" x2="-3269.5793" y2="-6194.1504" gradientTransform="matrix(1 0 0 -1 3411.4294 -5753.0508)">
	<stop  offset="0" style="stop-color:#FFFFFF"/>
	<stop  offset="1" style="stop-color:#FFFFFF;stop-opacity:0"/>
</linearGradient>
<polygon style="fill:url(#SVGID_00000084492416461006840050000005904498666561339325_);" points="203.8,441.1 79.9,441.1 
	79.9,474.9 203.8,474.9 "/>
<text transform="matrix(1 0 0 1 208.1257 317.1641)" class="st0 st5 st6">HONG KONG</text>
</svg>
